<?xml version="1.0" encoding="utf-8"?>
<!-- Generator: Adobe Illustrator 17.0.0, SVG Export Plug-In . SVG Version: 6.00 Build 0)  -->
<!DOCTYPE svg PUBLIC "-//W3C//DTD SVG 1.1//EN" "http://www.w3.org/Graphics/SVG/1.1/DTD/svg11.dtd">
<svg version="1.1" id="Capa_1" xmlns="http://www.w3.org/2000/svg" xmlns:xlink="http://www.w3.org/1999/xlink" x="0px" y="0px"
	 width="1094.1px" height="553.8px" viewBox="0 0 1094.1 553.8" enable-background="new 0 0 1094.1 553.8" xml:space="preserve">
<g>
	<g>
		<path fill="#E6E6E6" d="M27,134.6c-2.6-1.1-1.3,4.2-3.9,4.8c-2.6,0.7-5.7,2.3-3.7,2.9c2.1,0.6,6.8-0.3,7.3-1.3
			C27.2,140,27.7,134.9,27,134.6z M6.8,141.7c-3.1-0.3-6.3,0-6.8,1.3c-0.5,1.3,2.9,2.3,5,2.3c2.1,0,6.3-1.6,5.5-1.9
			C9.7,143,6.8,141.7,6.8,141.7z M27.7,112.6c-2.1,0-1,0-3.7,1c-1.1,0.4,1.8,2.6,2.9,2.6C28,116.1,29.8,112.6,27.7,112.6z
			 M427.9,360.2c-1.8-1-5.7-1.3-7.3-3.9c-1.6-2.6-6-5.2-7.6-4.5c-1.6,0.6-4.2,1.3-6.3-0.3c-2.1-1.6-5.5-3.6-6.8-4.8
			c-1.3-1.3-4.7-2.3-6.3-2.3c-1.6,0-1.3-1.3-3.7,2.6c-2.3,3.9,0,5.2-4.2,4.5c-4.2-0.6,0.5-1,2.9-4.8c2.4-3.9-0.3-6.1-2.9-5.2
			c-2.6,1-0.8,2.9-5,3.9c-4.2,1-4.2-2.3-1.6-2.9c2.6-0.6,7.3-3.6,7.3-4.9c0-1.3-0.5-4.8-2.6-4.8c-2.1,0-1.6-3.2-4.7-7.4
			c-3.1-4.2-7.1-6.8-10.2-6.1c-3.1,0.6-5.5,1.6-7-1.9c-1.6-3.6-3.4-4.2-4.4-6.1c-1-1.9-3.7,0-4.4-1c-0.8-1-0.8-1-0.8-1
			s-3.4,1-1.6-1.9c1.8-2.9,2.6-8.4,1.8-8.1c-0.8,0.3-2.1,4.9-3.4,4.5c-1.3-0.3-0.3-1-2.9-2.9c-2.6-1.9-6.8-0.3-6.8,1.3
			c0,1.6-1.3,2.9-1.3,2.9s-0.8-1-1.6-2.9c-0.8-1.9-4.4-2.3-6.3-0.3c-1.8,1.9-2.9-4.9-4.2-4.9c-1.3,0-3.9,1.6-5.2,4.5
			c-1.3,2.9-0.8,7.1-1.8,6.8c-1-0.3-1.3-5.8-1-7.8c0.3-1.9,3.1-5.2,1-5.8c-2.1-0.7-5.2,3.2-6.5,3.6c-1.3,0.3-3.9,2.6-5.5,5.2
			c-1.6,2.6-2.4,4.2-3.9,5.2c-1.6,1-3.9,0-3.4-1c0.5-1-4.4-4.5-5.2-3.2c-0.8,1.3-3.1,2.3-5.5,3.6c-2.4,1.3-4.4-1.6-5-2.9
			c-0.5-1.3-1.6-1.6-1.8-5.8c-0.3-4.2,0.5-8.7,1.3-11.3c0.8-2.6-3.9-7.8-5.7-7.4c-1.8,0.3-3.7,2.6-5.5,2.3c-1.8-0.3-1-1-3.9-1
			c-2.9,0-0.5-0.6,0-3.6c0.5-2.9-1-6.8,1.8-9.4c2.9-2.6,1.8-8.7,0-9c-1.8-0.3-5.2,1-7.6,0.6c-2.3-0.3-4.2,2.3-3.4,5.2
			c0.8,2.9-1.3,4.9-2.1,4.5c-0.8-0.3-1.8-1.9-4.7,0.6c-2.9,2.6-3.9,1.6-6.8-1.3c-2.9-2.9-6-5.8-6.5-10.3c-0.5-4.5-0.8-9,0.3-11.6
			c1-2.6,1-7.1-0.5-7.8c-1.6-0.6,1.8-3.9,3.7-4.5c1.8-0.6,4.7-3.6,5.2-4.8c0.5-1.3,3.1-1,6-1c2.9,0,3.4,0,6.3,1.9
			c2.9,1.9,3.4-1,3.4-1.9c0-1,1-2.9,4.2-2.6c3.1,0.3,7.6-1.3,8.4-0.3c0.8,1,2.3,4.8,3.9,3.5c1.6-1.3,2.1-3.5,2.6,0.3
			c0.5,3.9,1.8,9.7,4.2,10.7c2.4,1,1,4.8,3.4,5.2c2.3,0.3,3.4-6.1,2.6-8.4c-0.8-2.3-2.4-9-3.7-10.7c-1.3-1.6-1.3-5.8,1.3-7.1
			c2.6-1.3,8.9-7.8,10.7-9.7c1.8-1.9,6.8-3.6,5.2-6.1c-1.6-2.6-2.1-4.2-2.1-6.1c0-1.9,1.6-1.3,2.3,0c0.8,1.3,3.9-1.9,3.1-3.6
			c-0.8-1.6-0.5-3.9,1.3-3.5c1.8,0.3,2.4-1.6,1.6-2.9c-0.8-1.3,1.8-2.9,3.7-2.3c1.8,0.6,6.5-0.3,7.3-1.6c0.8-1.3-1.6-2.6-1.6-5.2
			c0-2.6,3.1-4.8,5-5.2c1.8-0.3,4.2,0,4.4-1c0.3-1,2.9-3.6,3.1-1.3c0.3,2.3,0,6.1,2.1,6.1c2.1,0,4.7-2.9,5.5-3.2
			c0.8-0.3,5.7-1.6,6.8-1.9c1-0.3,7.3-1,6.5-3.2c-0.8-2.3-1.6-4.5-2.4-5.5c-0.8-1-1.6,0.3-2.6,1.9c-1,1.6-2.9,1.6-3.4,0.3
			c-0.5-1.3,0.3-5.2-1.6-3.9c-1.8,1.3-2.1,2.6-3.1,1.9c-1-0.6-2.1-2.9-2.1-2.9s2.6-1.6,0.8-4.5c-1.8-2.9-4.4-2.3-7.1-0.6
			c-2.6,1.6-2.3,1.3-5.5,2.3c-3.1,1-4.7,1.9-4.7,1.9s4.2-3.2,6-5.2c1.8-1.9,4.2-2.9,5.7-4.9c1.6-1.9,5.7,1,5.7,1s2.1-2.6,2.1-1
			c0,1.6-0.5,5.8,1,5.8c1.6,0,6-2.6,4.2-3.2c-1.8-0.6,2.6,0,4.4-1.6c1.8-1.6,3.9-1.6,5-2.3c1-0.6,1.8-3.6,3.7-3.6
			c1.8,0,2.6,2.9,0,4.8c-2.6,1.9-2.9,6.8-4.2,8.1c-1.3,1.3-0.5,2.9,1.6,2.6c2.1-0.3,3.9,0.3,5.7-0.3c1.8-0.6,2.9,0.6,3.4,1.6
			c0.5,1,2.1-1,2.1-1s3.4-1,4.4,0.7c1,1.6,1.8-1,1-2.6c-0.8-1.6-1.8-3.2-2.6-5.2c-0.8-1.9-1.8-2.6-3.9-1.9c-2.1,0.6-2.6-0.6-3.9-1.6
			c-1.3-1-2.4,1.3-1.3-1c1-2.3,1.6-2.9,2.3-4.8c0.8-1.9,4.2-5.5,0.8-6.5c-3.4-1-4.4-1.6-5-3.6c-0.5-1.9-4.4-5.5-5.5-5.5
			c-1,0-4.7,0-5-1.6c-0.3-1.6-2.9-5.2-4.2-6.8c-1.3-1.6-6.3-8.7-7.1-9.4c-0.8-0.6-1.8-0.3-4.2,3.6c-2.4,3.9-4.4,4.5-6.3,3.6
			c-1.8-1-2.1-0.6-3.9-3.2c-1.8-2.6,1.8-2.9,1-4.5c-0.8-1.6-5-2.3-7.6-2.6c-2.6-0.3-4.4-3.9-8.4-4.2c-3.9-0.3-8.6,0.6-9.9,0.6
			c-1.3,0-1.3,2.3-1.8,5.8c-0.5,3.6,1.8,4.5-0.5,5.2c-2.4,0.6-3.4,1-1,2.3c2.3,1.3,5.5,6.5,5.5,6.5s0,2.9-1.8,4.5
			c-1.8,1.6-3.7,3.2-4.7,1.3c-1-1.9-3.9-1.6-3.1,0.3c0.8,1.9,2.4,2.9,2.4,4.8c0,1.9,2.4,6.8,0.8,8.4c-1.6,1.6-3.4,0.3-4.7,0.7
			c-1.3,0.3-2.6-2.6-1.6-3.2c1-0.6-0.3-5.5-0.3-5.5s-3.1,5.5-2.9,2.6c0.3-2.9-1.3-3.2-1.3-5.5c0-2.3-1.6-3.2-3.9-2.6
			c-2.4,0.6-5.2-1-9.7-1.9c-4.4-1-6.3-1.6-9.9-3.9c-3.7-2.3-5-0.6-6.8-0.3c-1.8,0.3-1-4.5-3.4-5.2c-2.4-0.6-3.7,0.6-4.2-3.6
			c-0.5-4.2,0.8-5.2,6.5-9.7c5.8-4.5,5-6.5,9.4-7.1c4.4-0.6,6.5,0.6,6.5-1c0-1.6,1-8.1,1-4.8c0,3.2,5.2,3.6,2.9,5.8
			c-2.3,2.3-1,2.6,0.8,2.6c1.8,0,5.2-2.3,5.2-2.3s4.2-2.3,5.2-0.3c1,1.9,1,3.9,2.9,3.9c1.8,0,5.7-2.6,2.4-4.9
			c-3.4-2.3-5.5-1.9-7.6-4.5c-2.1-2.6-1.6-1.6-3.9-1c-2.4,0.7-2.4-1-3.1-1c-0.8,0-2.1,0.7-2.6-0.6c-0.5-1.3,0.3-1.6,2.9-1.6
			c2.6,0,5.7,1,5.7,1s3.1-1.3,3.9-1.6c0.8-0.3,5-1,4.2-3.9c-0.8-2.9-3.4-2.9-4.2-3.9c-0.8-1,1.6-2.3,2.9-2.9c1.3-0.6,5,0,5,0
			s2.3,0.3,2.3-1c0-1.3-0.5-2.9,1-1.9c1.6,1,0,3.9,2.4,3.2c2.3-0.6,2.9,0,4.2,1c1.3,1-0.3,4.9-1.6,5.5c-1.3,0.6-3.4,1.9-0.5,2.3
			c2.9,0.3,5,0.3,5,0.3s1.8-2.3,2.6-4.2c0.8-1.9,2.1-0.6,3.1,0c1,0.7,5,1.6,1.3,2.9c-3.7,1.3-4.4,2.9-5.2,4.5
			c-0.8,1.6-1,2.6-4.4,1.6c-3.4-1-5.2-0.7-6,1c-0.8,1.6-0.3,6.8,1,6.1c1.3-0.6,2.6-0.6,4.2-1.3c1.6-0.6,7.8,0.6,9.4,0.3
			c1.6-0.3,4.2,3.2,5,2.6c0.8-0.6,2.4,1.3,3.9,2.6c1.6,1.3,1-2.9,3.9-0.3c2.9,2.6,1.3,2.6,2.9,2.6c1.6,0,5,0.3,5,0.3
			s0.3-3.2,2.9-2.6c2.6,0.6,5,4.2,4.7,1.6c-0.3-2.6,0.3-4.5-1.8-6.5c-2.1-1.9-5.5-3.2-6-4.2c-0.5-1-1-2.3-0.3-2.9
			c0.8-0.6,4.4,0.3,6.5,1.9c2.1,1.6,3.9,3.2,5.5,1.9c1.6-1.3,3.4-1.9,4.2-2.9c0.8-1,2.6-3.9,2.6-3.9s-7.8-1.3-8.9-2.9
			c-1-1.6-4.7-3.9-5.7-3.9c-1,0-3.9,2.3-5-1c-1-3.2-1-7.1-2.1-7.4c-1-0.3-12-2.3-13.6-3.2c-1.6-1-7.8-3.2-10.2-4.8
			c-2.3-1.6-5.7-3.9-7.8-3.9c-2.1,0-10.7,1.3-12.3,1c-1.6-0.3-6.3,0.6-8.1,1c-1.8,0.3,2.4,4.5-1.6,5.5c-3.9,1-3.4,1.6-2.6-3.2
			c0.8-4.9-2.6-6.1-6-4.2c-3.4,1.9-8.9,3.2-7.6,5.5c1.3,2.3-0.3,3.9,2.4,6.1c2.6,2.3,3.7,2.9,7.1,2.6c3.4-0.3,6.8,0.6,6.8,0.6
			s0,3.9-1.3,4.5c-1.3,0.6-3.4,0.6-3.9,2.6c-0.5,1.9-3.1,2.9-3.1,1.9c0-1,1.3-4.2-0.5-5.8c-1.8-1.6-2.4-1.9-4.4-0.3
			c-2.1,1.6-2.4,2.3-3.4-0.3c-1-2.6-4.2-4.9-4.2-4.9s-2.1-3.2-3.7-4.8c-1.6-1.6-4.4-1.3-4.7,0.3c-0.3,1.6,0.5,3.2,1.6,6.1
			c1,2.9,2.1,8.4,0.3,8.7c-1.8,0.3-2.1,0.6-3.9,1.3c-1.8,0.7-2.6-1-2.6-3.6c0-2.6-0.8-4.9-0.3-5.8c0.5-1-2.1,0.7-4.7,0
			c-2.6-0.6-4.7,1.3-2.1,2.3c2.6,1,3.1,4.9,0.8,5.8c-2.4,1-11.2,0-14.1,0c-2.9,0-7,1-7.8-1c-0.8-1.9,2.3-3.2,4.2-3.2
			c1.8,0,7.3,0.3,9.4-3.2c2.1-3.6-2.6-4.2-4.7-4.2c-2.1,0-3.7-1-6-3.9c-2.4-2.9,1.6-4.9,1-6.1c-0.5-1.3-3.1-0.3-5.5-0.3
			c-2.4,0-6-2.3-6,0.3c0,2.6,2.9,10,1,8.4c-1.8-1.6-1.6-3.9-2.9-5.8c-1.3-1.9-3.4-1.6-6-1.3c-2.6,0.3-7,1.3-8.4,1
			c-1.3-0.3-0.3-0.3-3.1-1.9c-2.9-1.6-4.2-1.3-6.3-2.9c-2.1-1.6-0.3-2.3-3.9-2.6c-3.7-0.3-3.4,2.3-7,1.6c-3.7-0.7-4.7,0.3-8.4,0
			c-3.7-0.3-5.5-0.7-6,1.6c-0.5,2.3-1.6,6.1-3.1,6.1c-1.6,0-3.4,2.3,1.6,2.6c5,0.3,2.1,3.2,6.5,2.9c4.4-0.3,8.4-0.3,9.4-2.9
			c1-2.6,1.8-2.6,2.3-1.6c0.5,1,4.4,6.8,4.4,6.8s2.6,2.6,3.7,3.2c1,0.6-1,3.6-3.1,1.9c-2.1-1.6-6-1.3-7.6-2.9
			c-1.6-1.6-8.6-1.6-10.4-1.3c-1.8,0.3-5-1-6-1c-1,0-4.4,3.2-4.4,3.2s-1.3-2.6-2.1-3.9c-0.8-1.3-2.1,1.3-3.1,1.6
			c-1,0.3-4.2-2.6-7.3-1.3c-3.1,1.3-2.1,2.6-6.5,2.3c-4.4-0.3-5.5-1.3-7-1c-1.6,0.3-1.6,0.3-1.6,0.3s0.3,1.3-1.6,2.6
			c-1.8,1.3-3.1,2.9-4.4,1c-1.3-1.9-2.1-1.9-2.9-2.3c-0.8-0.3-2.3-1.9-5.7-1c-3.4,1-8.6-1.3-9.7-1.3c-1,0-10.5-0.6-12.5-1.3
			c-2.1-0.7-7.6-0.7-9.7-0.3c-2.1,0.3-7.3,0.3-7.3,0.3s-3.9-3.2-4.7-3.2c-0.8,0-3.7,1.6-5,0c-1.3-1.6-3.7-2.6-3.7-2.6
			s-1,3.6-2.9,4.2c-1.8,0.7-5.7,1.9-6.5,1.3c-0.8-0.6-7.6,2.6-7.6,2.6s-4.2,4.2-5.2,3.9c-1-0.3-5.2-1-4.7,0.3c0.5,1.3,0,3.9,4.2,3.9
			c4.2,0,4.4,1.9,6,2.3c1.6,0.3,2.1,0,3.9,1.9c1.8,1.9,1.8,3.9-0.5,3.5c-2.3-0.3-5-1-6.5-2.6C33.2,87,33.2,87,33.2,87l-2.9,1.6
			C26.7,89,22,91.2,22,91.2s1.3,2.9,3.7,4.9C28,98,33.7,98,33.7,98s3.9,0.3,5.5-1.3c1.6-1.6,3.4-1.3,4.4-1c1,0.3-0.8,4.5-3.7,4.2
			c-2.9-0.3-6.3,0.3-8.6,2.6c-2.3,2.3-4.4,2.6-3.4,5.2c1,2.6,5,5.8,5.2,7.4c0.3,1.6,4.7-1,5.2-2.6c0.5-1.6,3.1-1.6,2.3,1.9
			c-0.8,3.6,2.6,4.2,2.6,4.2s1.6-3.2,2.4-2.6c0.8,0.6,3.4,3.6,3.4,3.6s3.4-2.9,4.4-1c1,1.9-1.6,3.6-3.1,4.5c-1.6,1-7.3,3.6-8.6,4.5
			c-1.3,1-6.3,3.9-7.6,3.9c-1.3,0-1.8,3.9,0.5,3.6c2.4-0.3,8.9-3.2,10.7-4.2c1.8-1,1,1.3,5.8-1.6c4.7-2.9,7.6-5.5,8.9-5.2
			c1.3,0.3,1.6,2.6,3.7,3.2c2.1,0.6,3.9-1.9,5.2-2.9c1.3-1,2.3-4.8,1-4.5c-1.3,0.3-4.7,0-4.7,0s3.7-2.6,3.7-4.2
			c0-1.6,0.5-4.2,2.6-5.2c2.1-1,2.1-0.3,0.8,3.6c-1.3,3.9,2.6,2.3,4.2,0.6c1.6-1.6,2.6-0.3,5.5-2.6c2.9-2.3,2.9-3.6,4.4-3.6
			c1.6,0,4.4,3.6,6,2.3c1.6-1.3,6,1.6,8.6,1.6c2.6,0,11,4.2,12.5,4.2s6.3,2.3,6.5,6.5c0.3,4.2,1.8,3.9,3.4,3.9
			c1.6,0,5.2,1.6,5.2,3.2c0,1.6-1,8.1,1.6,9.7c2.6,1.6,5,4.2,6,3.5c1-0.6,0-5.8-1.3-6.5c-1.3-0.6-0.5-2.9-1-4.2
			c-0.5-1.3,1.6-1.3,2.3,1c0.8,2.3,2.9,6.5,4.2,6.5c1.3,0,4.2,3.9,3.4,6.1c-0.8,2.3,0.8,5.5,3.1,5.5c2.3,0,5.2,4.5,6.3,4.9
			c1,0.3,2.4,1.9,2.4,2.9c0,1,1.3,6.5,1.3,8.7c0,2.3-0.8,11.3-1,14.9c-0.3,3.6,2.1,9.7,4.7,12.9c2.6,3.2,5,9.4,6.5,10.7
			c1.6,1.3,2.6,4.8,5,4.5c2.4-0.3,3.9,1.9,6,6.5c2.1,4.5,4.2,12,5.7,12.6c1.6,0.6,4.2,2.9,2.9,4.5c-1.3,1.6-3.4,5.2-1,5.2
			c2.3,0,3.1-1.6,5,1.3c1.8,2.9,4.2,4.5,3.9,6.5c-0.3,1.9,2.1,2.6,3.1,2.9c1,0.3,3.4,6.1,5.7,3.6c2.4-2.6-3.1-6.5-4.7-8.1
			c-1.6-1.6,0-5.2-3.7-8.7c-3.7-3.6-3.1-6.1-5.7-8.7c-2.6-2.6-4.7-4.8-2.1-7.1c2.6-2.3,2.9,2.3,3.9,5.2c1,2.9,6.5,8.7,8.9,11.3
			c2.4,2.6,6.5,11.6,7.8,11.6c1.3,0,5,5.2,5,5.2s2.1,4.2,1.3,5.5c-0.8,1.3,1,6.1,2.9,7.4c1.8,1.3,9.1,5.5,10.2,6.1
			c1,0.6,3.1,5.5,6,5.5s5,0.3,5.7,1.3c0.8,1,3.1,4.8,4.7,2.6c1.6-2.3,1.8-3.2,4.2-3.2c2.3,0,3.4,2.3,4.7,3.9c1.3,1.6,5,5.8,6.8,5.5
			c1.8-0.3,4.2,2.6,5.5,1.6c1.3-1,3.4,0.6,4.4,1.3c1,0.6,4.7,2.9,4.4,6.8c-0.3,3.9,2.1,4.8,3.7,5.8c1.6,1,3.7,3.2,5,4.9
			c1.3,1.6,4.2,1.9,5,2.9c0.8,1,1.3,2.9,3.7,1.3c2.3-1.6,1.8-4.5,1.8-4.5s2.6-0.6,3.9,0.7c1.3,1.3,2.1,5.5,2.9,6.1
			c0.8,0.7,2.3,5.5,1.3,9.1c-1,3.6-0.8,7.1-1.8,7.1c-1,0-2.4,4.2-3.9,5.2c-1.6,1-5.7,5.5-5.5,7.1c0.3,1.6,2.6,6.5,2.1,8.7
			c-0.5,2.3-3.9,4.8-3.1,8.4c0.8,3.6,6.3,4.5,6.5,7.8c0.3,3.2,4.2,10.3,4.7,13.6c0.5,3.2,5,6.8,5,11.3c0,4.5,6.3,7.4,7.6,7.8
			c1.3,0.3,3.7,3.2,5.5,4.2c1.8,1,3.4,2.9,4.7,5.5c1.3,2.6,1,6.5,1,7.4c0,1-0.8,11-1.6,16.8c-0.8,5.8,1,10.3-0.5,12
			c-1.6,1.6-3.7,3.2-2.1,5.2c1.6,1.9-1.8,3.2-1.8,4.2c0,1,2.1,6.1,1,8.4c-1,2.3-1.8,5.5-2.6,7.4c-0.8,1.9-2.6,3.9-2.1,6.8
			c0.5,2.9-2.1,1.9-2.1,4.8c0,2.9,2.4,1.6,1.8,5.2c-0.5,3.6-1.8,4.5-1.8,7.1c0,2.6,1.3,6.1,1.3,7.1c0,1-1.3,4.2-3.1,6.8
			c-1.8,2.6-3.1,4.2-2.9,5.8c0.3,1.6,2.1,3.6,1.8,4.5c-0.3,1-2.6,4.2-2.4,6.5c0.3,2.3,2.6,1.3,3.1,2.9c0.5,1.6-3.1,2.9-1.6,4.5
			c1.6,1.6,3.7,1.3,3.1,5.2c-0.5,3.9,2.9,4.8,3.6,5.8c0.8,1,2.4,3.2,3.7,3.2c1.3,0,2.3-1,2.9-4.5c0.5-3.6,4.2-0.7,1.6,1.9
			c-2.6,2.6-3.9,3.9-3.1,3.9c0.8,0,4.7,2.6,6.8,2.6c2.1,0,6.3-1.3,7.1-1.6c0.8-0.3,6.5-1.3,7-2.3c0.5-1-4.4-0.6-6.8-1.6
			c-2.3-1-6.5-5.8-7-7.8c-0.5-1.9-0.5-5.8,1.3-7.1c1.8-1.3,6.3-5.8,7.3-6.8c1-1,2.6-5.5,1.8-6.1c-0.8-0.6-4.7,0-5.2-1
			c-0.5-1-0.5-2.3,2.1-4.5c2.6-2.3,3.9-5.5,5-6.5c1-1,3.1-2.9,3.9-5.2c0.8-2.3-0.8-1-2.4-1c-1.6,0-2.3-3.6-2.3-5.2
			c0-1.6,3.9,0.7,6.8,1.3c2.9,0.6,1.6-1.6,1.3-3.5c-0.3-1.9,0.5-5.2,2.1-4.2c1.6,1,9.7-0.3,10.7-0.6c1-0.3,3.9-6.1,5-7.8
			c1-1.6,1.3-3.2,0-4.2c-1.3-1-2.9-4.5-3.4-5.5c-0.5-1-0.8-6.8-0.3-8.4c0.5-1.6,0,9.4,3.7,10.7c3.7,1.3,5.7,1.9,9.1-1.9
			c3.4-3.9,6-6.5,6.3-9.1c0.3-2.6,1-5.2,2.3-6.1c1.3-1,2.1,2.6,3.7-1.6c1.6-4.2,3.1-3.9,4.7-7.4c1.6-3.6-2.6-8.1,0.5-10.7
			c3.1-2.6,8.6-5.8,8.6-5.8s1.6-1,4.7-1.9c3.1-1,6.5-0.3,7.6-2.3c1-1.9,2.1-6.1,3.7-8.4c1.6-2.3,3.4-5.8,2.6-7.4
			c-0.8-1.6,2.1-8.7,1.8-10.7c-0.3-1.9-2.6-6.5,1.3-10.3c3.9-3.9,8.1-9.7,8.4-11.3c0.3-1.6,3.4-8.4,3.1-11.6
			C432.6,365,429.8,361.1,427.9,360.2z M298.9,171.1c0.8,0.6,6.3-1,7.3,0.6c1,1.6-1,1.9-3.7,3.2c-2.6,1.3-3.4,1-4.4,2.6
			c-1,1.6-4.4,2.3-6,4.2c-1.6,1.9-4.4,3.1-5,1.6c-0.8-1.9,0.3-1,0.5-1.9c0.3-1,5-3.2,5-3.2S298.1,170.4,298.9,171.1z M284.8,163.6
			c0.8-0.3,4.4-0.3,6.3,0c1.8,0.3,4.4,6.1,3.1,6.5c-1.3,0.3-3.4-1.3-3.4-3.6c0-2.3-1.8,4.2-0.8,6.1c1,1.9-2.1,4.2-3.1,4.2
			c-1,0-1.8-2.9-1.6-5.8c0.3-2.9-1.6-5.5-4.4-5.2c-2.9,0.3-4.2,3.2-5.2,4.2c-1,1-1,6.5-0.8,7.8c0.3,1.3,0.3,5.8-2.3,5.5
			c-2.4-0.3-1.8-5.8-1.6-7.8c0.3-1.9-0.8-6.8,0.3-9.4c1-2.6,4.2-3.6,6.3-3.9C279.6,162,284,164,284.8,163.6z M264.4,154.9
			c3.4-1.6,7.1-6.1,8.6-4.2c1.6,1.9,4.4,4.2,6.3,4.5c1.8,0.3-0.5,4.2-1.3,4.5c-0.8,0.3-3.7-0.7-6-0.7c-2.3,0-1.8-1.9-2.9-1.6
			c-1,0.3-3.4,1-5,1.9c-1.6,1-4.2,0.8-4.2-1C260,155.9,261,156.5,264.4,154.9z M161.5,160.4c-1.3,0.3-2.1-3.5-2.3-5.2
			c-0.3-1.6-2.9-1.6-4.2-2.6c-1.3-1-4.2-5.7-2.1-4.9c0.8,0.3,2.4,2.3,3.1,2.3c0.8,0,4.7,3.9,5.7,5.2
			C162.8,156.5,162.8,160.1,161.5,160.4z M281.9,103.4c-0.7,1,3.1,2.4,3.8,1.1C286.4,103.2,283.7,101,281.9,103.4z M292,105.4
			c-2.8,1-0.2,3.4,1.6,2.6C295.3,107.1,294.5,104.5,292,105.4z M165.9,54.1c2.3,0,5.9,0,7-0.6c1-0.6,6.3-2.2,6.1-0.2
			c-0.2,1.9,2.1,5,3.3,4.5c1.2-0.4,3.7-3.2,4.9-2.2c1.2,1.1,1.4,3.7,2.6,4.3c1.2,0.6,4.5,0.6,6.1,0c1.6-0.6,5.9-0.6,7.8-0.2
			c1.9,0.4,7.5,1.7,8,0.4c0.5-1.3,2.1-1.5,2.3-2.8c0.2-1.3,1-5.4,1-5.4s-1-2.4-2.8-1.3c-1.7,1.1-2.3,1.7-3.8,1.3
			c-1.6-0.4-1.6-3.9-4.4-3.2c-2.8,0.6-3.3,2.6-4.2,3.4c-0.9,0.9-2.8,1.5-3.5,1.1c-0.7-0.4-4.7-3.2-4.7-3.2s-8.4-0.4-8.7-1.7
			c-0.3-1.3-1.7-3.4-5.6-3c-3.8,0.4-10.4,3.2-11.5,3.2c-1,0,1.2,2.6-0.2,2.6c-1.4,0-3.1-0.2-3.7,1.7
			C161.7,54.1,163.7,54.1,165.9,54.1z M191.5,47.2c1.4,0,4.9-1.5,5.9-0.4c1,1.1,3.7,0.2,3.5-0.9c-0.2-1.1,1-5.4-1-5.6
			c-2.1-0.2-5,2.4-8.2,3.7C189.7,44.8,190.1,47.2,191.5,47.2z M218.7,43.9c2.1,0,6.6-1.3,7-0.2c0.3,1.1-0.2,1.9,2.3,2.4
			c2.4,0.4,3.5,0.9,4.9,0.9c1.4,0,0.9-2.8-0.4-4.7c-1.2-1.9-0.9-1.7-4-2.8c-3.1-1.1-6.3-1.1-8.4-0.9c-2.1,0.2-4.4-0.4-4.9,2.6
			C214.9,42.7,216.6,43.9,218.7,43.9z M218.7,51.1c-1.3,1.4,0,5.8-0.5,6.2c-0.5,0.4,0.2,2.4,1.6,1.9c1.4-0.4,2.1-4.5,3.1-4.5
			c1.1,0,6.4-1.5,7.3,0.9c0.9,2.4,0.9,1.3,3.3,1.5c2.4,0.2,4.3-3,4.5-4.1c0.2-1.1-1.2-3.2-4.5-2.8C230.2,50.6,220.1,49.5,218.7,51.1
			z M231.9,62c-1.2,0.6-4.9-1.1-6.8,0.4c-1.2,1-0.5,4.1,1.4,4.3c1.9,0.2,5.2-1.5,5.6-0.2c0.3,1.3,1.6,7.1,4.7,5.2
			c3.1-1.9,3-3.7,3.8-3.9c0.9-0.2-0.2-5-1.6-6C237.7,60.7,233.2,61.4,231.9,62z M248.7,65.7c2.3-0.4,5.6-0.9,7.1-1.1
			c1.6-0.2,1.9-3.5,0.2-3.7c-1.7-0.2-3.1-2.2-4.7-1.5c-1.6,0.6-7,3.4-6.4,5C245,65,246.4,66.1,248.7,65.7z M250.4,56.2
			c-0.9-2.6-5.2-3.4-6.1-0.9C243.5,57.6,251.3,58.8,250.4,56.2z M240.6,46.3c1.9,1.1,5,3,7.3,4.1c2.3,1.1,6.6,1.3,8,3.4
			c1.4,2.1,6.1,3.9,6.1,3.9l5.6,0.7c0,0,3.8-1.1,7.8-0.7c4,0.4,9.9,1.1,13.2,0.9c3.3-0.2,3.8-1.5,4.2-2.4c0.3-0.9-6.1-2.6-7.7-2.4
			c-1.6,0.2-10.5,0.2-13.1,0c-2.6-0.2-5.9-0.2-8,0c-2.1,0.2-3.7-1.7-5.2-2.8c-1.6-1.1-5-4.5-7.1-5c-2.1-0.4-1.7-0.4-6.1-1.7
			c-2.2-0.7-5.9-1.5-5.9-2.2C239.8,41.6,238.7,45.2,240.6,46.3z M491.9,92c-1.4-1.5-4.7-2.6-6.3-2.8c-1.6-0.2-3.1,1.5-6.6,1.5
			c-3.5,0-5.7,1.7-7.1,0c-1.4-1.7-7.1-2.6-7.7-1.5c-0.7,1.4-2.1,1.5-0.7,4.5c1.4,3,2.4,4.7,3.7,4.5c1.2-0.2,5.4-0.4,5.9,1.3
			c0.5,1.7,1.9,3.2,4.9,2.1c3-1.1,5.4-1.7,6.1-3c0.7-1.3,5.4-1.5,5.4-1.5S493.3,93.5,491.9,92z M466.6,60.7c-0.2-3.5,0-7.1,1-9.1
			c1-1.9,3-3.2,1.9-3.9c-1.1-0.6-2.6,0.9-3.7-2.4c-1.1-3.2,1-5.6,2.2-6.9c1.3-1.3,8-9.7,11.6-11c3.7-1.3,6.2-6.3,3.7-7.3
			c-2.5-1.1-7.6-3-11,0.4c-3.3,3.5-5.3,6.7-9.1,5.6c-3.8-1.1-4.4-6.8-6.6-9.7c-3.2-4.3-1.2-12.7-4.6-12c-3.3,0.6-3.3,0.6-3.3,0.6
			s-3.9-0.9-6.3-0.2c-3.2,0.8-5.2,3.2-7.1,2.7c-3.6-1-6.8,1.3-7.7,1.6c-7.8,2.1-14.1-0.8-15.2-1c-0.9-0.2,5.5,0.9,10.4,0
			c3.8-0.7,10.2-2.3,13.3-2.9c3.1-0.6,0.6-2.2-0.5-2.3c-4-0.6-10.1-2.6-15-2.9c-3.8-0.2-6.2,1.2-10,1.3C405.8,1.5,400,1.1,396.2,4
			c-3.3,2.5-7.6,2.8-8,3.3c-1.9,2.6-3.7,9-5.4,7.3c-1.8-1.7-2.1-6-4.3-4.3c-2.2,1.7-0.2,6-2.1,9c-1.9,3-7.3,2.6-8.9,1.5
			c-1.6-1.1-3.2-1.9-9.6-1.5c-6.4,0.4-13.4,3-11.9,5.6c1.4,2.6-2.9,4.1-4,2.8c-1.1-1.3-6.2,1.5-5.9,4.1c0.3,2.6-0.8,5.6-3.5,5
			c-2.7-0.6-4.6,1.5-4.8,3.7c-0.2,2.2-6.2,3.7-6.7,3.7c-0.5,0-8.3-0.2-5.4,2.4c1.9,1.7,3,0.7,5.4,1.3c2.4,0.6,4.3,5.4,5.6,6
			c1.3,0.6,3,0,3.8-1.3c0.8-1.3,1.9-5.8,1.9-5.8s0,4.3,1.9,5.2c1.9,0.9,6.7-0.6,8-0.4c1.3,0.2,8.8,1.5,10.8,2.8
			c2.1,1.3,7.2,2.2,8.6,5c1.4,2.8,1.6,12.5,2.4,13.6c0.8,1.1,3.5-3.4,4.1-4.5c0.6-1.1,4-0.4,5.1,1.1c1.1,1.5,3.7,5.2,3.5,6.7
			c-0.2,1.5-0.6,3.9-1.6,3c-0.9-0.9-2.5-0.6-1.9-2.4c0.6-1.7,0.9-5.4-0.3-5.4c-1.3,0-2.4,0-2.4,0s-2.4-0.9-4,2.4
			c-1.6,3.2-0.3,6.5,0.8,6.5c1.1,0,3.7,0,3.7,0.9c0,0.9-2.7,3.5-2.5,5c0.2,1.5,2.2,6.7,2.9,7.8c0.6,1.1,4,2.2,4.9,2.4
			c1,0.2-2.2,0.4-1.4,1.9c0.8,1.5,2.1,5.2,3.8,6c1.8,0.9,6.7,4.7,7.3,6.5c0.6,1.7,4.5-1.3,5.3-1.5c0.8-0.2,0.6,4.5,2.9,4.7
			c2.2,0.2,3-0.4,4.9-2.4c1.9-1.9,1.4-4.5,1.6-6.5c0.2-1.9,0-3.5,2.1-2.8c2.1,0.6,3.2-0.4,3-2.6c-0.2-2.2-1.9-4.7,1.4-5.4
			c3.3-0.6,5.1-3.4,7.2-3.4c2.1,0,7.8,1.1,8.4,0c0.6-1.1,3.3-6,5.1-6.2c1.8-0.2,6.4-0.6,10.5-1.5c4.1-0.9,8.6-4.1,10-3.9
			c1.4,0.2,4.9,0.2,3.8-1.1c-1.1-1.3-2.7-4.3-5.1-4.3s-0.2-4.7,0.5-4.7c0.6,0,3.8,0.6,3.7,2.8c-0.2,2.2,1,5,4.1,4.1
			c3.2-0.9,2.7-4.1,2.1-5c-0.6-0.9-1.1-3-1.8-4.5c-0.6-1.5-0.5-3.5,2.9-3.9C462.1,62,466.8,64.2,466.6,60.7z M308,264.8
			c0.3-1.3-2.9-4.8-4.7-4.5c-1.8,0.3-5.7-2.3-7.8-4.5c-2.1-2.3-6-2.3-7.6-2.3c-1.6,0-7.8,2.3-7.8,2.3c-0.3,3.2,2.4,2.3,5.5,2.3
			c3.1,0,8.6-0.6,9.7,1c1,1.6,5.7,4.2,7.1,5.5C303.6,265.8,307.8,266.1,308,264.8z M300.2,249.9c2.9-0.6,1.3-3.6-1-3.2
			C296.8,247,297.3,250.6,300.2,249.9z M300.5,273.5c-2.4,0.5-1.8,6.3,1,5.2C304.4,277.7,302.8,273,300.5,273.5z M334.9,269.9
			c-2.4,0.5-1.8,6.3,1,5.2C338.9,274.1,337.3,269.4,334.9,269.9z M323.2,265.8c-2.1-0.6-4.4,0-6,0.3c-1.6,0.3-6,5.2-6,5.2
			s2.9,0.6,4.7,0.6c1.8,0,2.9,1.3,4.4,2.3c1.6,1,4.4-1.3,5.5-1.3c1,0,2.4,3.9,2.6-0.3C328.7,268.4,325.3,266.4,323.2,265.8z
			 M691.8,388.6c-3.3-1.2-3.7,4.2-6.3,7.8c-2.6,3.6-5.5,6.5-6.5,6.1c-1-0.3-6.8,2.3-5,7.1c1.8,4.9,1.6,9.7-0.3,12
			c-1.8,2.3,1.6,8.7,1,12.3c-0.5,3.6,0.8,5.8,4.4,5.8c3.7,0,5-1.6,6.5-5.8c1.6-4.2,1.8-8.4,3.4-12c1.6-3.6,2.9-11,3.7-12.9
			c0.8-1.9,2.4-8.1,2.1-11.6C694.7,393.8,693.6,389.3,691.8,388.6z M786.6,305.5c-1.7,0.9-3.1,12,0,13.3c3.1,1.3,5-5.2,3.9-6.8
			C789.5,310.4,789,304.2,786.6,305.5z M569,190.5c1.3-2.3-1-5.5-2.3-5.5c-2.5,0-3.7,4.9-2.1,6.5C566.1,193.1,567.7,192.7,569,190.5
			z M549.4,190.5c0.5-1.3-0.8-3.9-2.6-0.3C546.2,191.4,548.9,191.8,549.4,190.5z M584.2,202.1c1,0.3,4.4,0,3.4-3.2
			c-1-3.2-3.4-3.2-4.2-3.2c-0.8,0-4.2-1-5.5,0c-1,0.7,1.6,2.9,2.9,3.5C582.1,199.8,583.1,201.8,584.2,202.1z M510.7,146.8
			c2.1,0.3,4.4-1.6,6.3-2.6c1.8-1,4.4-2.9,4.4-5.8c0-2.9-0.5-5.5-1.6-6.8c-1-1.3-2.9-1.6-4.4-1.3c-2.4,0.5-2.6,3.6-4.2,3.6
			c-1.6,0-3.4,0.6-2.9,2.9c0.5,2.3,1.6,3.9,0,4.8C506.8,142.6,508.7,146.5,510.7,146.8z M523.5,132.9c2.6,1.3,8.1,2.6,6,3.9
			c-2.1,1.3-5.8,4.8-6.3,6.8c-0.5,1.9,4.4,3.9,4.4,3.9s-1.6,2.3-0.3,2.9c1.3,0.6,2.1-2.3,4.2-2.3c2.1,0,6.3,1.6,8.4,1.6
			c2.1,0,5.5-3.6,5.2-5.8c-0.3-2.3-2.9-5.8-5.2-7.1c-2.4-1.3-5-7.1-6.5-8.4c-1.6-1.3,1.6-4.5-0.3-6.8c-1.8-2.3-3.1-1.9-5.2-3.6
			c-2.1-1.6-3.9,0.3-5.2,2.3c-1.3,1.9-2.9-0.3-4.4,0.3c-2.1,0.9-1.3,4.2-0.3,5.8C519.1,128.1,520.9,131.6,523.5,132.9z
			 M1050.7,111.9c7.8,0,5.2,0.6,11.5,0.3c6.3-0.3,8.6-4.2,14.6-6.1c6-1.9,10.7-3.2,12.5-2.3c1.8,1,4.7,0.3,2.9-1.9
			c-1.8-2.3-6-5.5-3.9-6.1c2.1-0.6,4.2-1,5-3.6c0.8-2.6-2.9-7.1-0.8-9.7c2.1-2.6-1.6-5.8-4.2-6.5c-2.6-0.7-12.8,0.6-14.9-0.7
			c-2.1-1.3-5.5-2.9-6.5-1.9c-1,1-3.4,6.1-3.4,6.1s-1.8,0.6-3.4-2.3c-1.6-2.9-10.2-2.6-12.8-2.6c-2.6,0-5.5,0.6-8.4,1
			c-2.9,0.3-4.4,1.3-6.5-1c-2.1-2.3-5-3.2-6-4.2c-1-1-6.8-1-11.2-0.3c-4.4,0.6-8.9,0.6-8.9,0.6s-2.1-1-5.2-3.2
			c-3.1-2.3-6.3-3.9-7.3-3.9c-1,0-9.1,1.6-11,0c-1.8-1.6-3.7-2.6-5-2.6c-1.3,0-2.3-2.6-0.8-2.6c1.6,0,8.9-2.6,8.9-2.6
			s-2.1-3.5-4.7-3.5c-2.6,0-7.3-1.6-8.6-1.6c-1.3,0-0.3,1.6-2.9,1c-2.6-0.7-5.2-1.9-6.8-0.7c-1.6,1.3-5.2,3.2-1.3,4.5
			c3.9,1.3,7.6,0,8.6,1.9c1,1.9,0,2.9,0,4.2c0,1.3-2.1,4.9-3.4,5.5c-1.3,0.6-2.9-1-5.5,0.6c-2.6,1.6-9.2,0.3-9.9,1.3
			c-0.8,1-2.3-2.6-3.7-1.9c-1.3,0.6-4.7,4.9-6.5,4.5c-1.8-0.3-4.2-2.6-4.2-5.2c0-2.6-0.8-5.8-1.6-6.5c-0.8-0.6-6.5-1-8.6-0.6
			c-2.1,0.3-8.6,1-9.7,2.3c-1,1.3-3.9,2.3-5.8,2.3c-1.8,0-3.4-2.3-7.3-2.9c-3.9-0.6-12.5-1-13.6-0.6c-1,0.3-4.4-0.6-3.1-1.9
			c1.3-1.3,5.2-5.5,2.9-7.4c-2.3-1.9-7.6-1.9-9.9-2.3c-2.3-0.3-4.7-1-8.4-0.3c-3.7,0.6-4.4,2.9-6,1c-1.6-1.9,3.9,1-1.6-1.9
			c-5.5-2.9-8.1-2.6-9.7-1.6c-1.6,1,0.3,0.6-3.9,2.6c-4.2,1.9-6.5,2.9-7.6,3.2c-1,0.3-7.6-1.6-8.3-2.3c-0.8-0.6-3.7,0.3-6.3,1.6
			c-2.6,1.3-4.4,3.2-7,2.6c-2.6-0.7-6.8-0.7-9.4,0.6c-2.6,1.3-4.4,1.3-7.1,3.5c-2.6,2.3-7.6,3.6-7.6,3.6s-4.4-0.3-6.8-0.3
			c-2.4,0-5.5,0-3.4,2.3c2.1,2.3,8.4,4.5,9.2,5.8c0.8,1.3,1.8,5.2,0.5,6.1c-1.3,1-3.4,0.7-3.7-2.3c-0.3-2.9-0.5-3.2-3.7-4.5
			c-3.1-1.3-2.9-0.3-5.5-3.2c-2.6-2.9-5.5-2.6-6.8-0.6c-1.3,1.9-0.5,5.8-2.1,6.1c-1.6,0.3-3.4,1.6-3.7-1.3c-0.3-2.9-0.3-8.4-2.1-5.2
			c-1.8,3.2-2.6,3.2-2.6,4.8c0,1.6,1.6,3.2,1,6.1c-0.5,2.9-0.5,4.9,0.3,4.9c0.8,0,2.6-2.9,5-3.6c2.4-0.6,6.5-2.3,6.8,0.6
			c0.3,2.9,2.9,3.9,0.3,5.2c-2.6,1.3-5.5,0.7-6-1.3c-0.5-1.9-2.3-1.9-4.2-0.3c-1.8,1.6-5.7,7.4-5.7,7.4s-6.3,3.6-7,2.9
			c-0.8-0.6,2.1-4.2,4.2-5.8c2.1-1.6,3.7-5.2,2.9-6.1c-0.8-1-1.8-7.1-1.3-8.7c0.5-1.6,2.9-3.9,0.3-5.5c-2.6-1.6-4.4-3.6-6.5-4.5
			c-2.1-1-4.4,3.9-6.3,5.2c-1.8,1.3-1.6,2.9-3.9,3.2c-2.4,0.3-3.9,4.2,0,6.5c3.9,2.3,5.2,3.9,4.2,5.2c-1,1.3-5.5-0.6-5.5-0.6
			s-3.4-1.9-5.5-1.9c-2.1,0-4.7-1.6-6.8-1.9c-2.1-0.3-6.3-0.3-7.3,1c-1,1.3-3.7,5.2-5.7,3.9c-2.1-1.3-2.1-2.6-5-1.3
			c-2.9,1.3-5.7-1-7.3,1c-1.6,1.9-0.3,1.9-5.2,0c-5-1.9-3.9,1.3-8.6,2.3c-4.7,1-7.6-1-8.9,1c-1.3,1.9-3.1,5.5-3.9,3.2
			c-0.8-2.3,2.6-6.1,1.3-7.4c-1.3-1.3-6.8-0.6-7.6,0.3c-0.8,1-0.3,4.5,0.3,5.8c0.5,1.3,1.3,6.5-0.3,5.5c-1.6-1-1.3-4.2-2.9-3.9
			c-1.6,0.3-3.4,1.3-4.2,1.9c-0.8,0.6-3.9,0.6-4.7,1.9c-0.8,1.3,0.3,4.9-1,5.2c-1.3,0.3-2.3,1.6-5.2-0.6c-2.9-2.3-2.9-1-3.7-0.3
			c-0.8,0.6-4.4,3.2-4.7,0.3c-0.3-2.9,0.5-3.9-1.8-5.8c-2.4-1.9-0.5-1.9,2.6-0.6c3.1,1.3,7,1.9,12.8-0.3c5.8-2.3,8.1-3.2,5.8-4.5
			c-2.4-1.3-4.7-2.6-8.4-3.2c-3.7-0.6-8.6-0.6-14.4-3.2c-5.7-2.6-7.1-3.6-9.4-4.2c-2.3-0.6-16.7-3.5-23.2-2.3
			c-6.5,1.3-24.6,7.1-25.6,8.1c-1.1,1-2.6,4.9-6,8.1c-3.4,3.2-9.7,10.7-14.6,12c-5,1.3-10.7,6.5-10.7,7.8c0,1.3,2.1,6.1,1.6,7.1
			c-0.5,1,1,5.8,3.9,7.1c2.9,1.3,7.8,1,8.1-1c0.3-1.9,4.2-6.1,4.4-3.2c0.3,2.9,2.9,7.4,2.3,9.4c-0.5,1.9,0,3.9,1.8,3.6
			c1.8-0.3,11.5-2.9,11.5-2.9s3.1-1.6,2.6-4.2c-0.5-2.6,3.4-6.1,4.2-7.1c0.8-1,3.7-4.9,0.3-6.1c-3.4-1.3-6-1.6-2.4-5.5
			c3.7-3.9,6,0,10.7-5.8c4.7-5.8-1-7.4,3.9-7.8c5-0.3,10.2-0.6,9.1,1.3c-1,1.9-7,6.1-10.4,8.1c-3.4,1.9-2.9,5.5-1.6,7.4
			c1.3,1.9,1.8,6.5,4.2,5.8c2.4-0.6,5.2-2.9,7.8-2.6c2.6,0.3,7.9-0.3,8.6-0.3c0.8,0,4.4,4.5,2.4,5.2c-2.1,0.6-4.7,0.3-9.2,0.6
			c-4.4,0.3-9.4,0.3-9.4,1.3c0,1,6,3.2,3.9,4.9c-2.1,1.6-4.2-0.3-6.8-0.7c-2.6-0.3-4.2,4.2-5,6.8c-0.8,2.6,1.3,7.1-2.6,5.5
			c-3.9-1.6-6.8-1.6-7.8-1c-1.1,0.6-4.2,1.9-6.8,2.9c-2.6,1-1.6-1.6-5-1.6c-3.4,0-3.4,0-3.4,0l-2.1,0.3c0,0-2.1-1.6-2.3-4.2
			c-0.3-2.6,1-5.5-0.3-6.1c-1.3-0.7-6,0.3-6.8,2.3c-0.8,1.9-1.6,5.5-0.5,7.1c1,1.6,4.2,4.8,1.3,3.9c-2.9-1-6.5-1.3-8.6,0.6
			c-2.1,1.9-5.7,6.1-5.7,6.1s-6.5,0.7-6.5,2.6c0,1.9,0,4.5-2.3,4.9c-2.4,0.3-5.5,1.3-8.6,1.9c-3.1,0.6-2.9,2.3-6.5,2.6
			c-3.7,0.3-4.2,2.3-0.8,2.9c3.4,0.6,8.6,3.2,8.9,6.1c0.3,2.9-0.3,6.1-1.6,9c-0.9,2-6.3,0.7-9.4,0.7c-3.1,0-9.4-1.3-12,0
			c-2.6,1.3-2.1,7.8-1.3,10.7c0.8,2.9-0.3,4.5-1.3,5.5c-1,1-1.3,3.9,0,5.2c1.3,1.3,2.3,4.2,3.4,4.5c1,0.3,4.4-1,5.7,0.6
			c1.3,1.6,2.6,5.5,3.4,4.5c0.8-1,1.8-5.2,3.1-4.2c1.3,1,4.4-0.3,6.8-0.6c2.3-0.3,3.6-3.6,6-5.2c2.3-1.6,1-1.6,0.3-3.5
			c-0.8-1.9,2.4-4.2,4.2-6.5c1.8-2.3,5.2-0.3,6-2.9c0.8-2.6,1-7.1,3.1-6.8c2.1,0.3,5,1.9,6.8,1.9c1.8,0,5.7-3.5,6.8-4.2
			c1.1-0.7,5-0.3,5.5,2.6c0.5,2.9,5,6.5,6,7.1c1,0.6,7.8,3.2,8.9,4.2c1,1,2.6,3.9,3.1,6.5c0.5,2.6,2.3,2.6,2.6,0.3
			c0.3-2.3-1.3-6.5,0.5-6.1c1.8,0.3,3.9-0.6,3.9-0.6s-5-4.2-6.8-5.2c-1.8-1-5.2-2.9-6.8-6.1c-1.6-3.2-5.5-3.9-5.2-7.1
			c0.3-3.2,3.9-1.3,6,1.3c2.1,2.6,7.3,6.1,9.1,8.4c1.8,2.3,4.7,3.2,5.5,6.1c0.8,2.9,3.1,6.1,3.9,7.4c0.8,1.3,3.4,8.4,4.2,10
			c0.8,1.6,3.4-0.3,4.7-1.6c1.3-1.3,3.7-1.9,3.9-4.5c0.3-2.6-3.1-4.5-4.2-5.5c-1-1,2.6-1.9,3.9-3.2c1.3-1.3,3.7-3.6,4.7-1.6
			c1,1.9,0.5,9.7,1,11c0.5,1.3,5.8,3.2,6.8,4.8c1,1.6,5.5,2.3,6.3,1.3c0.8-1,5,0.6,6,1c1,0.3,4.2-0.6,6.3-1.3
			c2.1-0.6,4.2-2.6,3.9,1.6c-0.3,4.2-1,10.7-3.7,13.9c-2.6,3.2-1.6,4.9-4.2,4.9c-1.2,0-2.3,0-3.2,0.5c-0.9-1.7-2-3-3.6-2.5
			c-3.1,1-7.1,1-9.7,4.8c-2.6,3.9-3.7,4.2-4.2,2.9c-0.5-1.3,7.6-6.8,6.5-8.4c-1-1.6-7.3-1-10.7-1c-3.4,0-6.3-2.6-8.9-3.2
			c-2.6-0.6-6,3.2-8.6,6.5c-2.6,3.2-4.4,1-6.8,1c-2.4,0-6.8-4.2-6.8-4.2s-4.4-2.3-6.3-2.3c-1.8,0-5.5-4.2-6.5-4.2
			c-1,0-3.9-2.9-1.8-4.2c2.1-1.3,4.2,1.3,2.1-5.8c-2.1-7.1-6.8-5.5-8.6-4.5c-1.8,1-14.9,0.6-15.9,0.6c-1,0-8.6,3.2-11,4.5
			c-2.4,1.3-6.5,2.9-7.6,3.6c-1,0.6-6.5-1.3-8.9,0.3c-3.1,2.1-6,5.5-6.8,5.5c-0.8,0-3.1,2.3-4.7,7.1c-1.6,4.9,0.3,9-2.6,10.7
			c-2.9,1.6-8.1,5.2-10.2,7.8c-2.1,2.6-4.7,11.6-7.3,15.8c-2.6,4.2,0,8.1,0.5,10.7c0.5,2.6,2.4,7.4-0.5,12c-2.9,4.5-2.6,6.8-3.9,7.1
			c-1.3,0.3,1.3,1.6,1.8,4.9c0.5,3.2-2.3,6.5,2.6,9.4c5,2.9,7.3,5.5,8.6,9.4c1.3,3.9,7.8,10.3,7.8,10.3s4.7,5.2,7.1,7.4
			c2.4,2.3,3.1,1,3.7-1.3c0.5-2.3,3.7-2.6,7.3-2.6c3.7,0,6.3,1,9.9,0.3c3.7-0.6,7.3-3.6,8.6-4.2c1.3-0.6,5.7-4.2,9.1-1.6
			c3.4,2.6,2.9,6.1,4.7,8.4c1.8,2.3,5,1,7.3-1.3c2.4-2.3,1.3-1.3,4.2,0.6c2.9,1.9,4.2,3.9,1.6,6.8c-2.6,2.9-1,7.4-2.6,12
			c-1.6,4.5-1.3,5.2,1.6,7.1c2.9,1.9,8.1,13.9,9.7,16.2c1.6,2.3-0.5,8.7,1.3,12.6c1.8,3.9,3.7,6.5,1.6,8.4c-2.1,1.9-5.7,5.5-6,12
			c-0.3,6.5,1,11,2.1,13.2c1,2.3,3.7,8.4,5,10.7c1.3,2.3,2.9,7.8,3.1,11.3c0.3,3.6-0.5,7.8,0.8,9.7c1.3,1.9,2.1,4.9,4.4,7.4
			c2.4,2.6,3.1,8.1,3.1,8.1s0.8,2.3,1,5.8c0.3,3.6,0.5,5.8,3.1,7.4c2.6,1.6,4.4,1.9,5.7,0.3c1.3-1.6,7.8-1.9,11.2-1.6
			c3.4,0.3,7.3-1.9,10.7-4.8c3.4-2.9,8.3-10.7,10.2-12.9c1.8-2.3,6-6.5,5.5-9c-0.5-2.6-1.6-5.2,0.5-6.5c2.1-1.3,7.1-3.9,7.3-5.8
			c0.3-1.9-1.8-10-2.3-11.6c-0.5-1.6,1.3-4.5,3.4-7.8c2.1-3.2,8.6-5.5,9.7-6.8c1-1.3,3.9-6.8,4.4-11c0.5-4.2-1-9.4,0-11.6
			c1-2.3,0.3-4.2-2.1-6.8c-2.4-2.6-1.8-10.4-2.6-11.6c-0.8-1.3-0.3-8.1,1.3-8.7c1.6-0.6,5-7.1,7.1-10c2.1-2.9,8.1-12,11-12.6
			c2.9-0.6,7.3-5.8,7.6-8.7c0.3-2.9,7.8-13.9,8.1-16.2c0.3-2.3,3.4-10.7,2.1-12.6c-1.3-1.9-11.5,2.9-12.8,3.6
			c-1.3,0.6-5,3.2-9.2,2.9c-4.2-0.3-2.4-4.5-2.6-6.5c-0.3-1.9-4.7-9.4-5.7-9.7c-1-0.3-4.2-4.2-5.5-8.1c-1.3-3.9-3.1-8.7-5.2-11.6
			c-2.1-2.9-3.4-9.7-5.5-14.2c-2.1-4.5-3.9-10.3-5.7-14.5c-0.4-1-0.9-2-1.4-3c2.4-0.7,5.9-2.1,6.4-0.3c0.5,2.3,3.4,7.1,3.9,10.7
			c0.5,3.5,3.4,2.3,3.7,5.5c0.3,3.2,2.9,11,3.9,12c1,1,5.8,6.1,6.5,8.1c0.8,1.9,1.8,4.5,2.6,9.4c0.8,4.8,1.6,11.3,3.7,12.3
			c2.1,1,9.1-1.6,10.4-2.6c1.3-1,9.9-6.1,13.1-6.5c3.1-0.3,3.7-2.9,7.6-3.9c3.9-1,6.8-4.5,9.4-7.1c2.6-2.6,5.7-9.1,6.8-11.3
			c1-2.3,3.7-3.9,2.3-6.5c-1.3-2.6-6.8-6.5-8.9-6.8c-2.1-0.3-1.8-4.5-3.1-4.5c-1.3,0-1,2.3-3.7,3.9c-2.6,1.6-5.2,4.8-7.1,4.2
			c-1.8-0.6,0.5-2.3-2.3-5.2c-2.9-2.9-3.9-3.6-3.9-5.8c0-2.3-5.7-6.5-6.3-9.7c-0.5-3.2,3.9-7.8,5.2-4.8c1.3,2.9,2.4,7.4,5.7,9.4
			c3.4,1.9,6.5,5.2,8.1,5.8c1.6,0.6,5.5-3.6,6.8-2.9c1.3,0.6,3.9,6.5,6.3,7.4c2.3,1,10.2,1.3,11.5,1.3c1.3,0,6.8,0.3,7.8-1.6
			c1-1.9,1.8-1.9,3.1-1.9c1.3,0,3.7,5.8,5.5,6.5c1.8,0.6,5.2,0.3,5,4.5c-0.3,4.2,1.6,7.8,3.4,8.1c1.8,0.3,6-4.8,6-4.8s0,8.1-0.3,11
			c-0.3,2.9,2.9,13.6,2.9,13.6s3.9,10,5,12.3c1,2.3,5.5,9.1,5.5,12c0,2.9,0.5,7.4,2.1,7.4c1.6,0,3.1-5.2,5-8.4
			c1.8-3.2,2.3-7.8,3.1-11c0.8-3.2,0.8-9.1,0.8-11.3c0-2.3,1.6-4.2,5.2-6.1c3.7-1.9,6.3-7.4,9.4-10.3c3.1-2.9,2.9-7.8,9.2-7.8
			c6.3,0,5.7,0,7.3-1.9c1.6-1.9,3.1-3.2,3.9,0.3c0.8,3.6,5.2,8.7,6,10c0.8,1.3,2.3,4.9,2.1,8.7c-0.3,3.9,0.3,8.4,1.6,8.4
			c1.3,0,3.9-5.5,3.9-5.5s5.7-4.8,5.5,0.3c-0.3,5.2,0.5,10.7,0.5,13.9c0,3.2,4.7,11,4.7,9.1c0-1.9,2.1-7.4,2.1-10.3
			c0-2.9,1.3-1.6,4.7,1.3c3.4,2.9,5.7,8.7,5.7,8.7s3.4,3.9,3.9,5.5c0.5,1.6,4.2-0.6,5-2.6c0.8-1.9,1.3-2.9,3.4-3.6
			c2.1-0.6,4.7-0.6,5.5-4.2c0.8-3.6,3.1-7.8,0-12.6c-3.1-4.9-4.7-8.1-7.1-10.3c-2.3-2.3-4.2-8.1-4.2-8.1s5-5.5,6.5-7.4
			c1.6-1.9,3.9-0.6,4.2,1.6c0.3,2.3-2.3,4.2-2.9,9.1c-0.5,4.9,3.1,6.5,4.2,4.9c1-1.6,3.7-5.5,3.7-6.5c0-1-1.8-0.6-2.1-4.2
			c-0.3-3.5,3.4-6.1,4.7-5.2c1.3,1,9.7-1.3,13.6-3.9c3.9-2.6,6.3-8.1,8.6-10.3c2.4-2.3,10.5-9.7,9.9-13.3c-0.5-3.6,0.3-8.4-1.8-12.9
			c-2.1-4.5-4.7-7.4-5.7-9.4c-1-1.9,4.4-2.3,7-5.2c2.6-2.9,0-5.5-1.3-5.2c-1.3,0.3-4.7,1.3-6,1c-1.3-0.3-2.1-1.9-4.2-3.9
			c-2.1-1.9,0.5-4.8,1.8-4.5c1.3,0.3,4.7-3.2,6.3-4.9c1.6-1.6,3.9-2.9,3.1-1.3c-0.8,1.6-2.6,7.4-0.5,7.8c2.1,0.3,7.1-4.8,7.8-4.5
			c0.8,0.3,2.1,4.5,1.3,6.5c-0.8,1.9-0.8,5.2,0.3,4.9c1-0.3,3.1-3.2,3.7-2.3c0.5,1,3.1,2.9,1.8,6.5c-1.3,3.6-3.9,4.9-0.8,7.1
			c3.1,2.3,4.2,0.3,6.5-1.3c2.3-1.6,3.9-8.7,2.6-11c-1.3-2.3-4.4-6.8-4.4-8.4c0-1.6,5.2-1.6,5.2-4.2c0-2.6,1.8-4.5,3.7-5.5
			c1.8-1,4.2-5.2,5-3.9c0.8,1.3,5.5,2.9,6.8,1c1.3-1.9,8.1-9,12.3-12.9c4.2-3.9,5.7-8.4,6.8-12.9c1-4.5,2.6-7.4,2.1-11
			c1.6,4.5,1.8,7.8,1.6,11.3c-0.3,3.6,0,11,0.5,12c0.5,1,2.6,3.2,3.9,2.6c1.3-0.6-0.5-7.1-0.5-8.4c0-1.3,1.8-3.2,2.9-3.6
			c1-0.3,0-5.8-1.3-8.1c-1.3-2.3-3.1-3.5-2.1-3.9c1-0.3,2.4-2.9,1.6-3.6c-0.8-0.6-0.3-2.9-2.1-2.3c-1.3,0.5-4.9-0.4-4.8,2.4
			c-0.8-2.7-2.4-4.6-4.4-4.3c-2.4,0.3-3.7,1.9-6,1.9c-2.4,0-0.5-4.5-1.6-4.5c-1,0-3.4,4.2-4.7,1.9c-1.3-2.3,3.7-5.2,7.6-6.8
			c3.9-1.6,10.5-11,13.1-11.3c2.6-0.3,9.1,0.6,14.9,0.3c5.7-0.3,7.6-3.2,9.4-1.6c1.8,1.6,5.7,3.6,8.1,3.2c2.3-0.3,1.3,0,5-3.2
			c3.7-3.2,7-4.9,8.9-7.4c1.8-2.6,6.8-4.5,7.1-1.9c0.3,2.6-0.5,5.2,1.6,5.2c2.1,0,5.2-2.6,7.8-3.9c2.6-1.3,4.7-2.9,4.7-2.9
			s-10.7,9-13.3,11c-2.6,1.9-8.9,3.2-11.5,7.1c-2.6,3.9-4.2,5.2-3.9,9.4c0.3,4.2,4.7,9.7,2.6,13.6c-2.1,3.9-2.9,9.4-2.9,9.4
			s3.1-5.5,7.6-9.1c4.4-3.5,7.1-8.4,8.6-10.3c1.6-1.9,6.3-2.3,6.3-4.5c0-2.3,1.3-5.2,2.1-7.8c0.8-2.6-1.6-1.9,0-5.2
			C1043.1,114.5,1042.9,111.9,1050.7,111.9z M644.2,340.8c1.3,2.6-2.9,11-5.2,10.3c-2.3-0.7-1.6-8.1-0.8-9.7
			C639,339.8,643.5,339.4,644.2,340.8z M634,108.7c1.3-4.5,8.6,1,7.3,3.2C640.1,114.2,633.2,111.7,634,108.7z M666.7,184.7
			c-2.1,0.6-8.4,1.3-10.7,1c-2.3-0.3-5.2-3.2-8.6-3.9c-3.4-0.6-7.6-0.3-8.9,1.9c-1.3,2.3-6,1.3-8.1,1.3c-2.1,0-4.7,3.2-5.2,1.9
			c0,0,1.6-5.8,0-6.5c-1.6-0.6,0.5-4.5,2.1-5.8c1.6-1.3,3.4-4.5,5-7.8c1.6-3.2,3.7-3.6,5-3.2c1.3,0.3,4.2,6.1,5,8.1
			c0.8,1.9,3.4-0.6,4.4-1.3c1-0.6,2.6-2.6,2.9-4.2c0.3-1.6,2.6-2.6,5.2-2.6c2.6,0,0.3,2.6-1.6,3.2c-1.8,0.6-0.8,1.9,2.4,3.2
			c3.1,1.3,6,4.9,9.4,7.1C668.3,179.5,668.8,184,666.7,184.7z M707.5,168.8c-1,1-5.8,1.9-7.3,0c-1.6-1.9-5.2,0.3-5.5,3.9
			c-0.3,3.6,1,1,2.6,2.3c1.6,1.3,2.1,3.2,3.1,5.2c1,1.9,2.9,1.3,4.2,2.9c1.3,1.6-3.7,3.6-1.6,5.5c2.1,1.9,3.1,9.7,3.4,11.6
			c0.3,1.9-5.7,2.9-7.6,2.6c-1.8-0.3-7.3-2.6-9.1-3.2c-1.8-0.6-2.9-8.7-0.5-8.4c2.4,0.3,2.9-0.6,5.5-3.5c2.6-2.9-3.9-4.2-5.7-4.9
			c-1.8-0.6-5.5-7.8-6.8-10c-1.3-2.3-0.3-5.8,2.9-8.4c1.6-1.3,5.7,1.6,7.8,0c2.1-1.6,4.2-3.5,5-4.2c0.8-0.6,6,1,6.8,2.9
			C705.4,164.9,708.5,167.8,707.5,168.8z M698.3,69.6c1.6,0.7,5,1,7.8,2.9c2.9,1.9,7,2.7,8.9,0.3c1.6-1.9,0.3-5.2-1-5.5
			c-1.3-0.3-2.1-2.9,1.3-5.2c3.4-2.3,7.1-5.2,11-5.8c3.9-0.6,12.8-1,15.9,0c3.1,1,7.8-4.2,9.1-6.5c1.3-2.3-4.2-3.9-5.7-1.3
			c-1.6,2.6-9.1,1.9-10.7,1.3c-1.6-0.6-14.1,2.6-16.7,2.6c-2.6,0-3.7,3.9-7.3,5.8c-3.7,1.9-8.6,4.9-10.5,5.8
			C698.6,65.1,696.7,68.9,698.3,69.6z M981.7,173c-1,0.3-2.9-3.6-5-2.9c-1.9,0.6-2.6,3.9-2.6,4.9c0,1-7.3,2.9-5,5.5
			c2.3,2.6,4.7,0.6,8.4,0.3c3.7-0.3,7.1-1.6,7.1-1.6s5.5,0.3,4.7-2.9C988.5,173,982.8,172.7,981.7,173z M964.5,201.1
			c-1,0-6.5,2.6-8.1,4.5c-1.6,1.9-9.1-1.6-10.2,0c-1,1.6-3.1,3.6-4.4,4.8c-1.3,1.3-5,0.3-4.2,4.2c0.8,3.9,2.6,7.4,4.2,7.4
			c1.6,0,3.7-1.3,3.7-4.8c0-3.6,3.6,0,5.5-0.3c1.8-0.3,2.9-2.6,3.7-5.2c0.1-0.3,0.2-0.5,0.2-0.7c-0.1,0.6,0,2.3,1.9,2.9
			c3.1,1,4.2-1.6,4.2-2.6c0-1,5.7-2.6,6.8-3.5c1-1,5.2-2.6,5.5-3.9c0.3-1.3,0-8.7,1.3-9.4c1.3-0.7,3.1-0.7,1-5.2
			c-2.1-4.5-2.1-8.7-4.7-6.8c-1.9,1.4-0.8,7.1-2.4,11C966.9,197.6,965.5,201.1,964.5,201.1z M910.2,257.1c3.1-0.3,6.5-11.3,3.1-10.7
			C909.4,247.1,907,257.4,910.2,257.1z M1086.2,485.2c-1,0-1.6,1.6-3.9,0c-2.3-1.6-1.8-1-3.4-4.2c-1.6-3.2-1.8-7.4-4.4-5.8
			c-1,0.6,0,4.2,1,5.5c1,1.3,1.6,5.8,1.3,7.1c-0.3,1.3-4.7,2.9-2.6,4.5c2.1,1.6,6,0,5.5,1.9c-0.5,1.9-2.6,4.5-0.3,5.2
			c2.3,0.6,3.1-2.3,4.2-4.5c1-2.3,1.8-4.2,3.7-5.5C1089.1,488.2,1087.3,485.2,1086.2,485.2z M1072.4,495.9c-0.4,1.6-2.6,1.9-4.2,3.5
			c-1.6,1.6,0,2.3-4.4,5.5c-4.4,3.2-9.9,6.8-11,9.7c-1,2.9,1,4.5,5.2,4.9c4.2,0.3,3.1,1.3,6-2.6c2.9-3.9,5.5-6.1,8.9-9.4
			c3.4-3.2,3.4-8.1,3.4-8.1S1072.6,495,1072.4,495.9z M989.3,500.1c-1.3-0.3-4.2-1.6-4.2-1.6c-2.9,3.6,2.9,3.6,2.1,7.1
			c-0.8,3.6,3.9,2.3,5.2,1.6c1.3-0.6,4.4-8.1,3.9-10C995.8,495.3,990.6,500.4,989.3,500.1z M999,420.9c0.3-2.9-4.4-2.9-6.8-5.2
			c-2.3-2.3-2.6-9.1-3.9-12.9c-1.3-3.9-3.9-6.5-6.5-10c-2.6-3.6-3.9-11.6-4.7-11c-0.8,0.6-3.1,10-1.3,12.9c1.8,2.9-0.8,8.7-2.1,12.6
			c-1.3,3.9-4.4-0.7-7.1-2.6c-2.6-1.9-6.3-3.2-8.1-5.5c-1.8-2.3,3.1-8.4,1.8-10.7c-1.3-2.3-8.4-0.3-9.1-0.3c-0.8,0-2.3-3.2-3.9-3.2
			c-1.6,0-1.3,6.5-1.3,6.5s-1.6-2.3-3.9-5.2c-2.4-2.9,0.3,1.9-2.1,4.9c-2.3,2.9-1.6,1.9-2.6,5.2c-1,3.2-3.4,1.9-5.7-1.3
			c-2.4-3.2-3.7-1-5.2,0c-1.6,1-2.9,6.5-3.7,7.8c-0.8,1.3-6.3,2.9-7.6,4.5c-1.3,1.6-1.8,6.8-1.8,8.1c0,1.3-5.5,0.6-7.3,2.3
			c-1.8,1.6-4.7,0.6-6.5,0.6c-1.8,0-8.1,6.1-10.2,7.8c-2.1,1.6-2.1,7.4-1,9.1c1,1.6,3.1,5.5,1.8,6.1c-1.3,0.6-2.1,5.2,1,9
			c3.1,3.9,2.1,4.8,2.4,6.8c0.3,1.9,1.6,2.6,3.7,5.8c2.1,3.2-3.7,5.8-4.4,7.8c-0.8,1.9,1.8,4.8,3.4,6.5c1.6,1.6,5.5,0.6,7.8-0.3
			c2.3-1,5-3.5,6.5-3.9c1.6-0.3,8.9-0.6,8.9-0.6s2.6-4.9,4.4-7.4c1.8-2.6,7.6-0.3,7.6-0.3s2.3-1.9,8.6-3.6c6.3-1.6,3.7,1.6,6,2.6
			c2.3,1,5.5,1.6,7.3,3.2c1.8,1.6,0,5.5-0.3,7.1c-0.3,1.6,4.4,1,4.7-0.6c0.3-1.6,1.6-3.2,4.2-5.2c2.6-1.9,0.5,2.9,1.6,5.8
			c1,2.9,2.6-3.9,2.6-0.6c0,1,0.8,1.9,1,2.9c0.3,1,3.7,1.3,3.7,4.5c0,3.2,0,5.2,0.8,5.8c0.8,0.6,5,0,6.8,3.9
			c1.8,3.9,3.1,0.3,4.2-1.3c1-1.6,4.7,0.7,5.7,1.9c1,1.3,3.9-2.6,7.8-3.9c3.9-1.3,3.4-1,4.4-2.9c1-1.9,1.8-7.1,4.2-11
			c2.3-3.9,5.5-10.7,5.5-15.8c0-5.2-0.3-17.1-3.1-22.6C1004.2,429.3,998.7,423.8,999,420.9z M1093.5,403.1c-2.3-1-7.1,6.8-7.1,6.8
			C1089.9,411.5,1095.9,404.1,1093.5,403.1z M1053.3,426.1c0.3-1.6-0.5-3.9-5.2-5.2c-4.7-1.3-1.6,1,0,3.9
			C1049.7,427.7,1052.8,429.2,1053.3,426.1z M866.5,353.4c1.3-1.9,0.8-4.9-1.3-4.5c-2.1,0.3-3.9-4.2-7.3-7.1c-3.4-2.9-6-4.9-9.1-9
			c-3.1-4.2-7.1-6.8-9.1-9.1c-2.1-2.3-5.2-3.2-6.5-2.9c-3.2,0.8,4.7,7.8,5.5,8.7c0.8,1,7.8,8.4,7.8,12c0,3.6,4.7,12,6,13.2
			c1.3,1.3,7.8,6.1,8.9,8.7c1,2.6,3.4,3.2,3.4-0.3C864.7,359.5,865.2,355.3,866.5,353.4z M846.7,316.8c1.3,5.8,3.9,11.6,5,13.9
			c1,2.3,5.5,5.5,7.1,7.1c1.6,1.6,3.9-0.6,2.9-2.6c-1-1.9-3.1-4.8-3.4-7.1c-0.3-2.3-1.6-5.8-3.7-9.7c-2.1-3.9-3.9-4.8-5.2-7.4
			c-1.3-2.6-6-7.4-6-7.4c-2.1,0.3-2.1,5.2-1,6.8C843.3,312,845.4,311,846.7,316.8z M892.4,374.1c0.3-1.9-2.9-4.9-4.2-4.9
			c-1.3,0-7.8-1.9-7.8-1.9c-1.2,0.6-2.7,1.1-3.2,2c-0.1-0.3-0.4-0.6-1-1c-2.9-1.9-6.3,0-7.3-2.6c-1-2.6-2.6-2.6-3.7-1
			c-1.9,2.9,0.5,5.2,1.3,5.8c0.8,0.6,3.7,1.3,6.3,1c1.6-0.2,3.7-0.7,4.3-1.4c0.1,0.3,0.3,0.7,0.7,1.1c2.1,2.3,3.4,3.2,6.5,2.9
			C887.4,373.7,892.1,376,892.4,374.1z M906,377.9c-0.6,2.9,3.9,4.2,4.2,1C910.4,375.7,906.5,375.4,906,377.9z M925.6,378.3
			c0,0,4.2-0.6,4.2-2.9c0-2.3-4.2-5.2-5.8-2.6c-1.6,2.6-4.4,5.2-4.2,7.4C920.2,383.7,925.6,378.3,925.6,378.3z M905.7,356.6
			c2.1,1.6,6-5.5,7.1-3.2c1,2.3-0.3,3.2,1.6,6.1c1.8,2.9,5.2,2.6,5.2,2.6s-0.3-7.8-3.1-9.7c-2.9-1.9-4.7-4.2-1.3-3.6
			c3.4,0.6,5.2-1,4.4-2.9c-0.8-1.9-5.7-1-7.3-0.6c-1.6,0.3-3.9-1.3-3.9-1.3c-1.6,0.6-1.3,2.3-1.8,5.5
			C906,352.7,903.6,355,905.7,356.6z M924.5,336.2c-1,0-8.4,1.6-9.1,1.9c-0.8,0.3-5.5-0.7-5.5-0.7c-1.8,2.3-0.5,4.5,2.3,4.2
			c2.9-0.3,8.9-1.3,10.2-1.3C923.8,340.4,925.6,336.2,924.5,336.2z M936.5,333c-2.4-1.3-6.8,10.7-3.6,11.6
			C936,345.6,938.4,334,936.5,333z M894.2,323c-5,0-5.2,4.9-6.3,5.8c-1,1-2.1,1.3-4.2,1.9c-2.1,0.6-2.6,3.2-3.1,4.8
			c-0.5,1.6-4.2-2.9-5.2-1.6c-1,1.3-0.3,7.4,1.6,12.6c1.8,5.2,6.5,8.4,7.8,8.4c1.3,0,3.9,0,5.8,0.6c1.8,0.6,7.8,1.3,7.6-1.6
			c-0.3-2.9-0.8-7.4,1.8-10.3c2.6-2.9,5.2-4.5,3.9-8.7c-1.3-4.2-3.9-6.8-2.1-8.7c1.8-1.9,3.9-2.6,3.9-4.2c0-1.6-4.4,4.5-5-6.1
			c-0.1-2.3-4.2,0.6-4.4,2.9C896.1,321.1,899.2,323,894.2,323z M907.3,283.2c1.6,3.9,7.1,6.8,5.7,8.4c-1.3,1.6-5.2,4.8-5.7,7.8
			c-0.5,2.9,6.3-4.5,8.1-7.4c1.8-2.9,5.5-1.3,6.3-2.9c0.8-1.6,0.8-1.6,0.8-1.6s-2.9-0.6-5.2-1.6c-2.4-1-5.2,2.6-3.9-2.6
			c1.3-5.2,5.2-4.2,4.4-8.1c-0.8-3.9-3.4-4.9-4.2-4.9c-1.8,0,0.3,3.6-2.3,5.8C908.6,278.4,905.7,279.3,907.3,283.2z M915.7,304.6
			c2.9,0,7.8,1,6.8-0.6c-1-1.6-3.7-6.8-6.5-5.5C915,298.8,912.8,304.6,915.7,304.6z M924.5,293.6c-1-0.1-4.4,6.8,0.3,6.5
			C929.5,299.7,928.2,293.9,924.5,293.6z M925.3,305.5c-3.7,5.8-3.4,4.5-6,3.2c-2.6-1.3-6.8,2.9-6,4.5c0.8,1.6,6.5-0.3,7.8,2.6
			c1.3,2.9,1.3,3.2,3.9,2.6c2.6-0.6,5.2-5.2,4.4-7.4C928.7,308.8,925.3,305.5,925.3,305.5z M967.4,369.5c-2.1,0-4.4,3.2-2.9,3.6
			c1.6,0.3,6.3-1,6.5,0c0.3,1,2.9,7.1,5.5,6.8c2.6-0.3,4.2-6.1,5.5-7.8c1.3-1.6,6.5-2.6,7.1,0.3c0.5,2.9,2.1,5.8,5.2,7.8
			c3.1,1.9,6.8,3.9,7.1,2.3c0.3-1.6-1.6-7.8-3.7-8.7c-2.1-1-5.7-6.5-5.7-8.7c0-2.3-3.1-2.9-4.7-4.5c-1.6-1.6-2.9-6.1-6.8-7.1
			c-3.9-1-5-2.6-9.1-5.2c-4.2-2.6-13.6-2.6-13.9-1c-0.3,1.6,0,0-3.1-1.3c-3.1-1.3-5.5,0-6.3-2.3c-0.8-2.3-2.6-2.9-5,0
			c-2,2.4-2.9,2.6,1.6,3.6c4.4,1,5.7,1,3.9,3.5c-1.8,2.6-3.1,5.8-1.6,6.1c1.6,0.3,6.3-1.3,6.8,0c0.5,1.3-1,1.6,4.2,2.6
			c5.2,1,6.3,3.2,7.3,4.5C966.3,365.3,969.5,369.5,967.4,369.5z"/>
	</g>
</g>
</svg>
